<?xml version="1.0" standalone="no"?><!DOCTYPE svg PUBLIC "-//W3C//DTD SVG 1.1//EN" "http://www.w3.org/Graphics/SVG/1.1/DTD/svg11.dtd"><svg t="1717429497453" class="icon" viewBox="0 0 1024 1024" version="1.1" xmlns="http://www.w3.org/2000/svg" p-id="7026" xmlns:xlink="http://www.w3.org/1999/xlink" width="200" height="200"><path d="M579.53 444.1c9.85 6.89 20.64 11.28 26.61 19.28 12 16.06 3.21 34.64-16.78 35-51.52 1-103.11 1.17-154.59-0.54-8-0.26-22.11-12.55-21.8-18.68 0.5-9.66 9.42-25.05 17.32-26.84 15.44-3.51 15.49-12.07 16.65-23.27 3.78-36.53 0.72-70.25-25.39-100.1-14.88-17-26.55-37.77-35.81-58.56-13.5-30.3 5.77-60.28 38.71-64.07 13.63-1.57 30.53 3.49 32.72-18.82 0.25-2.54 7.3-6.23 11.26-6.32 28.51-0.64 57-0.57 85.55-0.5 2.6 0 7.23 1.17 7.51 2.49 6.38 31.24 34.32 18.69 52.34 26 24.32 9.91 35.69 39.46 22.93 65.07-8.56 17.18-18.2 34.68-31 48.76-33.14 36.62-35.83 78.36-26.23 121.1zM511.26 921.57c-39.54 0-79.12-1-118.61 0.42-19.47 0.68-28.08-8-33.72-24.87-12.64-37.75-1.1-70.23 19.49-101.47 3.35-5.07 7.34-13.9 5.2-17.71-11.74-20.9 1.1-25.39 16.85-25.51q114.48-0.85 229 0.07c15.79 0.16 29 5.34 14.81 25.77-2.39 3.44 0.78 12.25 3.49 17.49 17.2 33.3 31.44 66.65 16 105.07-5.89 14.62-14.51 21.43-31.05 21-40.51-0.92-80.99-0.27-121.46-0.26zM394.58 747.62c41.19-77.24 62.66-156.15 65.14-242H562.9c3.71 84 27.41 164 70.58 242zM664.13 957H359.39c-2.51-18.23 2.71-28.69 22.25-28.68q129.48 0 259-0.08c19.36-0.04 25.56 9.9 23.49 28.76zM489.74 67h49.63c-6.33 13.82-11.58 25.3-16.83 36.79l5.58 6 37.56-18.32v54.35l-36.47-18.5-6.69 5.11c4.94 11.46 9.88 22.92 16.3 37.79h-50.54L505.33 134l-5-5.9-37.71 16.22V91.9l37 18.26 6.27-5.07z" p-id="7027" fill="#2c2c2c"></path></svg>